<?xml version="1.0" standalone="no"?>
<!DOCTYPE svg PUBLIC "-//W3C//DTD SVG 20010904//EN"
 "http://www.w3.org/TR/2001/REC-SVG-20010904/DTD/svg10.dtd">
<svg version="1.0" xmlns="http://www.w3.org/2000/svg"
 width="200.000000pt" height="184.000000pt" viewBox="0 0 200.000000 184.000000"
 preserveAspectRatio="xMidYMid meet">

<g transform="translate(0.000000,184.000000) scale(0.100000,-0.100000)"
fill="#000000" stroke="none">
<path d="M220 1525 c0 -17 42 -82 116 -181 123 -164 312 -450 346 -522 40 -84
32 -96 -65 -86 -57 6 -69 4 -65 -7 18 -59 431 -238 520 -226 55 7 68 22 68 76
0 48 28 122 51 137 8 5 127 11 264 14 231 5 253 7 290 27 37 20 85 58 85 68 0
3 -48 2 -107 -1 -73 -4 -146 -1 -228 10 -138 18 -282 21 -340 5 -22 -6 -68
-29 -102 -51 -74 -47 -94 -47 -105 5 -24 116 -133 252 -331 411 -51 40 -137
114 -193 163 -164 145 -204 176 -204 158z"/>
</g>
</svg>
