<!DOCTYPE svg PUBLIC "-//W3C//DTD SVG 20010904//EN" "http://www.w3.org/TR/2001/REC-SVG-20010904/DTD/svg10.dtd">
<svg version="1.0" xmlns="http://www.w3.org/2000/svg" width="800px" height="800px" viewBox="0 0 8000 8000" preserveAspectRatio="xMidYMid meet">
<g id="layer101" fill="#007cca" stroke="none">
 <path d="M0 4000 l0 -4000 4000 0 4000 0 0 4000 0 4000 -4000 0 -4000 0 0 -4000z"/>
 </g>
<g id="layer102" fill="#ffffff" stroke="none">
 <path d="M0 4000 l0 -4000 4000 0 4000 0 0 4000 0 4000 -4000 0 -4000 0 0 -4000z m4416 2991 c349 -53 612 -136 914 -286 183 -91 307 -165 432 -257 451 -334 806 -779 1011 -1268 184 -439 251 -844 227 -1365 -19 -422 -113 -776 -311 -1175 -238 -477 -583 -869 -1019 -1156 -357 -235 -725 -385 -1125 -459 -194 -36 -312 -45 -574 -45 -297 0 -460 20 -741 90 -415 104 -776 284 -1142 570 -108 85 -362 340 -461 463 -306 381 -502 802 -602 1292 -52 257 -58 339 -52 669 6 299 17 398 71 631 201 857 782 1597 1567 1995 356 181 746 293 1124 324 129 10 553 -4 681 -23z"/>
 <path d="M3053 4849 c-578 -578 -1046 -1052 -1039 -1055 6 -2 481 -3 1056 -2 l1045 3 3 1053 c1 578 -2 1052 -6 1052 -5 0 -481 -473 -1059 -1051z"/>
 <path d="M4427 5273 c-4 -3 -7 -408 -7 -900 l0 -893 -822 0 -821 0 -144 -144 c-78 -80 -143 -147 -143 -150 0 -3 509 -6 1130 -6 l1130 0 0 1050 0 1050 -158 0 c-87 0 -162 -3 -165 -7z"/>
 <path d="M5047 4744 c-4 -4 -7 -418 -7 -921 l0 -913 -848 0 -847 0 -150 -150 -150 -150 1163 0 1162 0 -2 1068 -3 1067 -156 3 c-85 1 -158 -1 -162 -4z"/>
 </g>

</svg>