<!DOCTYPE svg PUBLIC "-//W3C//DTD SVG 20010904//EN" "http://www.w3.org/TR/2001/REC-SVG-20010904/DTD/svg10.dtd">
<svg version="1.0" xmlns="http://www.w3.org/2000/svg" width="800px" height="800px" viewBox="0 0 8000 8000" preserveAspectRatio="xMidYMid meet">
<g id="layer101" fill="#007cca" stroke="none">
 <path d="M0 4000 l0 -4000 4000 0 4000 0 0 4000 0 4000 -4000 0 -4000 0 0 -4000z"/>
 </g>
<g id="layer102" fill="#ffffff" stroke="none">
 <path d="M0 4000 l0 -4000 4000 0 4000 0 0 4000 0 4000 -4000 0 -4000 0 0 -4000z m4323 3005 c263 -28 545 -97 786 -192 143 -56 376 -173 496 -249 383 -242 742 -605 970 -979 225 -369 355 -734 422 -1180 27 -186 25 -659 -5 -850 -156 -998 -758 -1827 -1645 -2264 -330 -163 -615 -249 -985 -297 -156 -21 -542 -24 -687 -6 -612 77 -1108 280 -1566 643 -134 105 -373 344 -479 479 -360 454 -571 968 -642 1565 -17 149 -14 534 6 688 90 696 385 1299 873 1784 490 487 1134 791 1823 862 140 14 483 12 633 -4z"/>
 <path d="M4060 5220 c-115 -31 -414 -142 -575 -213 -102 -45 -377 -187 -427 -221 -92 -62 -122 -91 -114 -111 5 -15 15 -17 69 -11 34 3 109 9 167 12 98 6 106 5 124 -15 30 -33 19 -120 -31 -222 -90 -188 -563 -897 -903 -1354 -175 -235 -256 -362 -248 -386 6 -18 161 108 432 350 203 181 424 368 596 507 168 135 426 386 512 499 134 176 220 339 245 464 18 94 42 131 82 131 34 0 111 -38 176 -88 133 -101 255 -153 407 -174 100 -13 363 -5 528 17 63 8 165 21 225 30 61 8 196 20 300 26 168 11 201 10 288 -4 110 -19 173 -22 181 -8 9 13 -119 117 -179 146 -27 13 -86 34 -130 47 -79 22 -90 22 -635 23 -618 0 -595 -2 -658 69 -73 83 -102 176 -102 327 0 122 -3 127 -89 160 -64 24 -152 24 -241 -1z"/>
 </g>

</svg>